<svg xmlns="http://www.w3.org/2000/svg" width="128" height="128" viewBox="0 0 128 128">
  <g id="email_copy" data-name="email copy" transform="translate(0.422)">
    <g id="Circle_Grid" data-name="Circle Grid">
      <circle id="Ellipse_203" data-name="Ellipse 203" cx="64" cy="64" r="64" transform="translate(-0.422)" fill="#f5f5f5"/>
    </g>
    <path id="Icon_material-content-copy" data-name="Icon material-content-copy" d="M33.851,1.5H7.407A4.42,4.42,0,0,0,3,5.907V36.758H7.407V5.907H33.851Zm6.611,8.814H16.222a4.42,4.42,0,0,0-4.407,4.407V45.572a4.42,4.42,0,0,0,4.407,4.407h24.24a4.42,4.42,0,0,0,4.407-4.407V14.722A4.42,4.42,0,0,0,40.461,10.314Zm0,35.258H16.222V14.722h24.24Z" transform="translate(39.794 38.26)"/>
  </g>
</svg>
