<svg xmlns="http://www.w3.org/2000/svg" width="128" height="128" viewBox="0 0 128 128">
  <g id="email_copy" data-name="email copy" transform="translate(0.002)">
    <g id="Circle_Grid" data-name="Circle Grid">
      <circle id="Ellipse_203" data-name="Ellipse 203" cx="64" cy="64" r="64" transform="translate(-0.002)" fill="#f5f5f5"/>
    </g>
    <g id="whatsapp" transform="translate(26.779 26.779)">
      <path id="Path_2604" data-name="Path 2604" d="M63.648,10.7A37.662,37.662,0,0,0,37.361,0C8.918,0-8.942,30.816,5.261,55.329L0,74.442l19.65-5.124c8.561,4.625,15.574,4.215,17.73,4.488,32.981,0,49.4-39.9,26.222-62.987Z" transform="translate(0)" fill="#eceff1"/>
      <path id="Path_2605" data-name="Path 2605" d="M32.952,63.335l-.019,0h-.05a31.253,31.253,0,0,1-16.8-4.944L4.456,61.412,7.574,50.106l-.741-1.163a30.61,30.61,0,0,1-4.7-16.315c0-27.274,33.328-40.912,52.615-21.635C73.985,30.069,60.477,63.335,32.952,63.335Z" transform="translate(4.477 4.131)" fill="#4caf50"/>
      <path id="Path_2606" data-name="Path 2606" d="M41.742,31.026l-.028.233c-.934-.465-5.481-2.689-6.328-3-1.9-.7-1.365-.112-5.016,4.07-.543.6-1.083.651-2,.233a25.174,25.174,0,0,1-7.454-4.606,28.141,28.141,0,0,1-5.149-6.421c-.909-1.569.993-1.793,2.723-5.068a1.7,1.7,0,0,0-.078-1.625c-.233-.465-2.084-5.025-2.86-6.842-.744-1.811-1.511-1.582-2.084-1.582-1.787-.155-3.092-.13-4.243,1.067-5.006,5.5-3.744,11.179.54,17.215,8.418,11.017,12.9,13.046,21.1,15.862a12.833,12.833,0,0,0,5.831.375c1.78-.282,5.481-2.236,6.253-4.423.791-2.187.791-4,.558-4.42s-.837-.651-1.768-1.07Z" transform="translate(12.561 13.351)" fill="#fafafa"/>
    </g>
  </g>
</svg>
